<svg width="154" height="97" viewBox="0 0 154 97" fill="none" xmlns="http://www.w3.org/2000/svg">
<path d="M69 3L69.49 92.9996" stroke="#616161" stroke-width="6" stroke-linecap="round"/>
<path d="M69 3L69.49 92.9996" stroke="#616161" stroke-width="6" stroke-linecap="round"/>
<path d="M3.44031 60L3.44006 92.4993" stroke="#616161" stroke-width="6" stroke-linecap="round"/>
<path d="M3.44031 60L3.44006 92.4993" stroke="#616161" stroke-width="6" stroke-linecap="round"/>
<path d="M136.44 60L136.44 92.4993" stroke="#616161" stroke-width="6" stroke-linecap="round"/>
<path d="M136.44 60L136.44 92.4993" stroke="#616161" stroke-width="6" stroke-linecap="round"/>
<path d="M150 66L150.44 93.4993" stroke="#616161" stroke-width="6" stroke-linecap="round"/>
<path d="M150 66L150.44 93.4993" stroke="#616161" stroke-width="6" stroke-linecap="round"/>
<path d="M37 48L37.8166 92.9996" stroke="#616161" stroke-width="6" stroke-linecap="round"/>
<path d="M37 48L37.8166 92.9996" stroke="#616161" stroke-width="6" stroke-linecap="round"/>
<path d="M20 48L20.8166 92.9996" stroke="#616161" stroke-width="6" stroke-linecap="round"/>
<path d="M20 48L20.8166 92.9996" stroke="#616161" stroke-width="6" stroke-linecap="round"/>
<path d="M53.1833 30L53 92.9996" stroke="#616161" stroke-width="6" stroke-linecap="round"/>
<path d="M53.1833 30L53 92.9996" stroke="#616161" stroke-width="6" stroke-linecap="round"/>
<path d="M119 48L120 92.9996" stroke="#616161" stroke-width="6" stroke-linecap="round"/>
<path d="M119 48L120 92.9996" stroke="#616161" stroke-width="6" stroke-linecap="round"/>
<path d="M102 27L103 93" stroke="#616161" stroke-width="6" stroke-linecap="round"/>
<path d="M102 27L103 93" stroke="#616161" stroke-width="6" stroke-linecap="round"/>
<path d="M85 34L85.525 93.4972" stroke="#616161" stroke-width="6" stroke-linecap="round"/>
<path d="M85 34L85.525 93.4972" stroke="#616161" stroke-width="6" stroke-linecap="round"/>
</svg>
