<svg version="1.2" xmlns="http://www.w3.org/2000/svg" viewBox="0 0 24 24" width="24" height="24"><style>.a{fill:none;stroke:#000;stroke-linecap:round;stroke-linejoin:round;stroke-width:1.5}</style><filter id="f0"><feFlood flood-color="#414141" flood-opacity="1" /><feBlend mode="normal" in2="SourceGraphic"/><feComposite in2="SourceAlpha" operator="in" /></filter><g filter="url(#f0)"><path fill-rule="evenodd" class="a" d="m12 15c1.7 0 3-1.3 3-3 0-1.7-1.3-3-3-3-1.7 0-3 1.3-3 3 0 1.7 1.3 3 3 3z"/><path fill-rule="evenodd" class="a" d="m2 12.9v-1.8c0-1 0.9-1.9 1.9-1.9 1.8 0 2.6-1.3 1.6-2.8-0.5-0.9-0.2-2.1 0.7-2.6l1.8-1c0.8-0.5 1.8-0.2 2.3 0.6l0.1 0.2c0.9 1.5 2.3 1.5 3.3 0l0.1-0.2c0.4-0.8 1.5-1.1 2.2-0.6l1.8 1c0.9 0.5 1.2 1.7 0.7 2.6-0.9 1.5-0.2 2.8 1.6 2.8 1 0 1.9 0.9 1.9 1.9v1.8c0 1-0.8 1.9-1.9 1.9-1.8 0-2.5 1.3-1.6 2.8 0.5 0.9 0.2 2.1-0.7 2.6l-1.8 1c-0.7 0.5-1.8 0.2-2.2-0.6l-0.1-0.2c-0.9-1.6-2.4-1.6-3.3 0l-0.1 0.2c-0.5 0.8-1.5 1.1-2.3 0.6l-1.8-1c-0.9-0.5-1.2-1.7-0.7-2.6 1-1.5 0.2-2.8-1.6-2.8-1 0-1.9-0.9-1.9-1.9z"/></g></svg>