<svg width="212" height="209" viewBox="0 0 212 209" fill="none" xmlns="http://www.w3.org/2000/svg">
<path d="M201 102.5C201 90.0244 198.543 75.171 193.768 63.6451C188.994 52.1191 181.997 41.6464 173.175 32.8249C164.353 24.0033 153.881 17.0056 142.355 12.2314C130.829 7.45725 118.475 5 106 5C93.5243 5 81.1709 7.45725 69.6449 12.2314C58.119 17.0056 47.6463 24.0033 38.8247 32.8249C30.0032 41.6464 23.0055 52.1191 18.2313 63.6451C13.4571 75.171 10.9999 87.5244 10.9999 100" stroke="#989898" stroke-width="10"/>
<g filter="url(#filter0_d_18_8)">
<path d="M18 102C18 98.134 14.866 95 11 95C7.13401 95 4 98.134 4 102H18ZM18.2314 137.59L24.6781 134.862L24.6781 134.862L18.2314 137.59ZM69.6451 187.921L67.0147 194.408L67.0147 194.408L69.6451 187.921ZM142.355 187.921L139.725 181.434L139.725 181.434L142.355 187.921ZM173.175 167.761L168.278 162.759L168.278 162.759L173.175 167.761ZM193.769 137.59L187.322 134.862L187.322 134.862L193.769 137.59ZM4 102C4 115.153 6.6466 128.174 11.7848 140.317L24.6781 134.862C20.2679 124.439 18 113.273 18 102H4ZM11.7848 140.317C16.9228 152.46 24.4496 163.484 33.928 172.763L43.7217 162.759C35.557 154.766 29.0885 145.285 24.6781 134.862L11.7848 140.317ZM33.928 172.763C43.4062 182.042 54.6503 189.394 67.0147 194.408L72.2755 181.434C61.588 177.1 51.8867 170.752 43.7217 162.759L33.928 172.763ZM67.0147 194.408C79.3788 199.421 92.6256 202 106 202V188C94.4233 188 82.9632 185.768 72.2755 181.434L67.0147 194.408ZM106 202C119.374 202 132.621 199.421 144.985 194.408L139.725 181.434C129.037 185.768 117.577 188 106 188V202ZM144.985 194.408C157.35 189.394 168.594 182.042 178.072 172.763L168.278 162.759C160.113 170.752 150.412 177.1 139.725 181.434L144.985 194.408ZM178.072 172.763C187.55 163.484 195.077 152.46 200.215 140.317L187.322 134.862C182.912 145.285 176.443 154.766 168.278 162.759L178.072 172.763ZM200.215 140.317C205.353 128.174 208 115.153 208 102H194C194 113.273 191.732 124.439 187.322 134.862L200.215 140.317Z" fill="#85CCFF"/>
</g>
<defs>
<filter id="filter0_d_18_8" x="0" y="95" width="212" height="115" filterUnits="userSpaceOnUse" color-interpolation-filters="sRGB">
<feFlood flood-opacity="0" result="BackgroundImageFix"/>
<feColorMatrix in="SourceAlpha" type="matrix" values="0 0 0 0 0 0 0 0 0 0 0 0 0 0 0 0 0 0 127 0" result="hardAlpha"/>
<feOffset dy="4"/>
<feGaussianBlur stdDeviation="2"/>
<feComposite in2="hardAlpha" operator="out"/>
<feColorMatrix type="matrix" values="0 0 0 0 0 0 0 0 0 0 0 0 0 0 0 0 0 0 0.25 0"/>
<feBlend mode="normal" in2="BackgroundImageFix" result="effect1_dropShadow_18_8"/>
<feBlend mode="normal" in="SourceGraphic" in2="effect1_dropShadow_18_8" result="shape"/>
</filter>
</defs>
</svg>
